<svg xmlns="http://www.w3.org/2000/svg" width="161" height="280" viewBox="0 0 161 280">
  <path fill-rule="evenodd" d="M79.7813654,7.02586625 C84.061554,6.86114021 87.7339269,7.48319238 90.7984842,8.89202278 C95.3974698,11.0062566 103.578775,16.7948277 106.108218,22.7417217 C108.63766,28.6886157 110.131125,33.144949 107.678934,42.5347568 C106.04414,48.7946286 103.44167,53.0746846 99.8715223,55.3749246 L137.038212,101.858045 L151,112.878407 L142.389723,122.841924 L146.315845,129.175648 L138.166225,140.482396 L135.045614,212.047031 L128.444039,225.11216 L138.166225,238.47095 L128.767275,249.939579 C130.390978,252.908908 130.389502,256.306853 128.762845,260.133416 C127.136188,263.959978 123.755973,267.43393 118.622199,270.55527 L105.860162,275.868962 L110.546963,266.374923 C108.301979,265.440882 106.214319,264.347098 104.283984,263.093571 C102.353648,261.840045 100.563253,260.415486 98.9127968,258.819895 C97.3710607,259.306734 94.5780652,259.723973 90.5338104,260.071612 C87.1244298,260.364678 84.1716618,260.555352 81.6755064,260.643634 L81.6758007,260.722726 C77.6224977,260.723648 73.6021887,260.550289 69.6148738,260.20265 C65.6275589,259.855011 62.8738866,259.437772 61.3538569,258.950933 C59.7266381,260.546524 57.9614498,261.971083 56.058292,263.224609 C54.1551342,264.478136 52.096867,265.57192 49.8834906,266.505961 L54.504305,276 L41.9219471,270.686308 C36.8604528,267.564968 33.5278282,264.091016 31.9240735,260.264454 C30.3203187,256.437891 30.318863,253.039945 31.9197063,250.070617 L22.6530855,238.601988 L32.2383909,225.243198 L25.7297607,212.178069 L22.6530855,140.613434 L14.6182059,129.306686 L18.4890509,122.972962 L10,113.009445 L23.7652171,101.989083 L60.4086295,55.5059626 C56.8887468,53.2057225 54.3229169,48.9256666 52.7111398,42.6657947 C50.2934742,33.2759869 51.7659124,28.8196537 54.2597419,22.8727596 C56.7535715,16.9258656 64.8196909,11.1372945 69.3539264,9.02306074 C72.164371,7.71260015 75.640184,7.04686866 79.7813654,7.02586625 Z M83.8367369,227.813428 C95.7439421,227.813428 105.396639,218.194379 105.396639,206.328681 C105.396639,194.462982 95.7439421,184.843934 83.8367369,184.843934 C71.9295318,184.843934 62.2768348,194.462982 62.2768348,206.328681 C62.2768348,218.194379 71.9295318,227.813428 83.8367369,227.813428 Z M63.2796209,177.8489 C70.4793264,177.8489 76.3158408,172.03273 76.3158408,164.858122 C76.3158408,157.683514 70.4793264,151.867345 63.2796209,151.867345 C56.0799155,151.867345 50.2434011,157.683514 50.2434011,164.858122 C50.2434011,172.03273 56.0799155,177.8489 63.2796209,177.8489 Z M94.3659914,166.856703 C97.6889324,166.856703 100.382708,164.172318 100.382708,160.86096 C100.382708,157.549602 97.6889324,154.865217 94.3659914,154.865217 C91.0430505,154.865217 88.3492746,157.549602 88.3492746,160.86096 C88.3492746,164.172318 91.0430505,166.856703 94.3659914,166.856703 Z M79.3241993,141.874439 C82.6471402,141.874439 85.3409161,139.190053 85.3409161,135.878696 C85.3409161,132.567338 82.6471402,129.882952 79.3241993,129.882952 C76.0012583,129.882952 73.3074824,132.567338 73.3074824,135.878696 C73.3074824,139.190053 76.0012583,141.874439 79.3241993,141.874439 Z M89.3520607,118.890756 C91.0135312,118.890756 92.3604192,117.548563 92.3604192,115.892884 C92.3604192,114.237206 91.0135312,112.895013 89.3520607,112.895013 C87.6905902,112.895013 86.3437023,114.237206 86.3437023,115.892884 C86.3437023,117.548563 87.6905902,118.890756 89.3520607,118.890756 Z M65.7157981,49.6314023 L94.6737223,49.6314023 C98.325425,43.3092546 99.1496852,37.2066802 97.1465028,31.3236789 C94.1417291,22.499177 89.6440526,21.2663354 79.8719231,21.2663354 C70.0997936,21.2663354 64.3707143,23.9801697 62.1965122,31.3236789 C60.7470441,36.2193517 61.9201394,42.3219262 65.7157981,49.6314023 Z"/>
</svg>
